<svg xmlns="http://www.w3.org/2000/svg" width="1200" height="630" viewBox="0 0 1200 630">
  <rect width="1200" height="630" fill="#0a0a0a"/>

  <!-- Grid lines -->
  <g stroke="#20ff20" stroke-opacity="0.06" stroke-width="0.5">
    <line x1="0" y1="0" x2="1200" y2="0"/>
    <line x1="0" y1="30" x2="1200" y2="30"/>
    <line x1="0" y1="60" x2="1200" y2="60"/>
    <line x1="0" y1="90" x2="1200" y2="90"/>
    <line x1="0" y1="120" x2="1200" y2="120"/>
    <line x1="0" y1="150" x2="1200" y2="150"/>
    <line x1="0" y1="180" x2="1200" y2="180"/>
    <line x1="0" y1="210" x2="1200" y2="210"/>
    <line x1="0" y1="240" x2="1200" y2="240"/>
    <line x1="0" y1="270" x2="1200" y2="270"/>
    <line x1="0" y1="300" x2="1200" y2="300"/>
    <line x1="0" y1="330" x2="1200" y2="330"/>
    <line x1="0" y1="360" x2="1200" y2="360"/>
    <line x1="0" y1="390" x2="1200" y2="390"/>
    <line x1="0" y1="420" x2="1200" y2="420"/>
    <line x1="0" y1="450" x2="1200" y2="450"/>
    <line x1="0" y1="480" x2="1200" y2="480"/>
    <line x1="0" y1="510" x2="1200" y2="510"/>
    <line x1="0" y1="540" x2="1200" y2="540"/>
    <line x1="0" y1="570" x2="1200" y2="570"/>
    <line x1="0" y1="600" x2="1200" y2="600"/>
    <line x1="0" y1="630" x2="1200" y2="630"/>
    <line x1="0" y1="0" x2="0" y2="630"/>
    <line x1="40" y1="0" x2="40" y2="630"/>
    <line x1="80" y1="0" x2="80" y2="630"/>
    <line x1="120" y1="0" x2="120" y2="630"/>
    <line x1="160" y1="0" x2="160" y2="630"/>
    <line x1="200" y1="0" x2="200" y2="630"/>
    <line x1="240" y1="0" x2="240" y2="630"/>
    <line x1="280" y1="0" x2="280" y2="630"/>
    <line x1="320" y1="0" x2="320" y2="630"/>
    <line x1="360" y1="0" x2="360" y2="630"/>
    <line x1="400" y1="0" x2="400" y2="630"/>
    <line x1="440" y1="0" x2="440" y2="630"/>
    <line x1="480" y1="0" x2="480" y2="630"/>
    <line x1="520" y1="0" x2="520" y2="630"/>
    <line x1="560" y1="0" x2="560" y2="630"/>
    <line x1="600" y1="0" x2="600" y2="630"/>
    <line x1="640" y1="0" x2="640" y2="630"/>
    <line x1="680" y1="0" x2="680" y2="630"/>
    <line x1="720" y1="0" x2="720" y2="630"/>
    <line x1="760" y1="0" x2="760" y2="630"/>
    <line x1="800" y1="0" x2="800" y2="630"/>
    <line x1="840" y1="0" x2="840" y2="630"/>
    <line x1="880" y1="0" x2="880" y2="630"/>
    <line x1="920" y1="0" x2="920" y2="630"/>
    <line x1="960" y1="0" x2="960" y2="630"/>
    <line x1="1000" y1="0" x2="1000" y2="630"/>
    <line x1="1040" y1="0" x2="1040" y2="630"/>
    <line x1="1080" y1="0" x2="1080" y2="630"/>
    <line x1="1120" y1="0" x2="1120" y2="630"/>
    <line x1="1160" y1="0" x2="1160" y2="630"/>
    <line x1="1200" y1="0" x2="1200" y2="630"/>
  </g>

  <!-- Scan line effect overlay -->
  <defs>
    <linearGradient id="glow" x1="0" y1="0" x2="1" y2="1">
      <stop offset="0%" stop-color="#20ff20" stop-opacity="0.03"/>
      <stop offset="50%" stop-color="#20ff20" stop-opacity="0"/>
      <stop offset="100%" stop-color="#20ff20" stop-opacity="0.03"/>
    </linearGradient>
  </defs>
  <rect width="1200" height="630" fill="url(#glow)"/>

  <!-- Top border accent -->
  <rect x="60" y="40" width="1080" height="2" fill="#20ff20" fill-opacity="0.4"/>

  <!-- Corner brackets -->
  <path d="M60 40 L60 60" stroke="#20ff20" stroke-width="2" fill="none" opacity="0.6"/>
  <path d="M60 40 L80 40" stroke="#20ff20" stroke-width="2" fill="none" opacity="0.6"/>
  <path d="M1140 40 L1140 60" stroke="#20ff20" stroke-width="2" fill="none" opacity="0.6"/>
  <path d="M1120 40 L1140 40" stroke="#20ff20" stroke-width="2" fill="none" opacity="0.6"/>
  <path d="M60 590 L60 570" stroke="#20ff20" stroke-width="2" fill="none" opacity="0.6"/>
  <path d="M60 590 L80 590" stroke="#20ff20" stroke-width="2" fill="none" opacity="0.6"/>
  <path d="M1140 590 L1140 570" stroke="#20ff20" stroke-width="2" fill="none" opacity="0.6"/>
  <path d="M1120 590 L1140 590" stroke="#20ff20" stroke-width="2" fill="none" opacity="0.6"/>

  <!-- Title -->
  <text x="600" y="220" text-anchor="middle" font-family="'Courier New', Courier, monospace" font-size="64" font-weight="bold" fill="#20ff20">USVirtualUni</text>

  <!-- Subtitle -->
  <text x="600" y="295" text-anchor="middle" font-family="'Courier New', Courier, monospace" font-size="32" fill="#20ff20" fill-opacity="0.9">AAPL 19.91 — &quot;D Otomei&quot;</text>

  <!-- Tagline -->
  <text x="600" y="345" text-anchor="middle" font-family="'Courier New', Courier, monospace" font-size="20" fill="#20ff20" fill-opacity="0.6">Artist / MetaDeveloper / B.I.G.</text>

  <!-- Separator -->
  <line x1="400" y1="400" x2="800" y2="400" stroke="#20ff20" stroke-width="1" stroke-opacity="0.3"/>

  <!-- Credits -->
  <text x="600" y="447" text-anchor="middle" font-family="'Courier New', Courier, monospace" font-size="16" fill="#20ff20" fill-opacity="0.5">BLACK DIGITAL CyberSecure #BDCS</text>
  <text x="600" y="475" text-anchor="middle" font-family="'Courier New', Courier, monospace" font-size="16" fill="#20ff20" fill-opacity="0.5">Incubator Studios Outbeat Produce EST 2024</text>

  <!-- Prompt indicator -->
  <text x="60" y="560" font-family="'Courier New', Courier, monospace" font-size="12" fill="#20ff20" fill-opacity="0.25">root@usvu:~$ og_card --render 1200x630</text>

  <!-- Blinking cursor -->
  <rect x="435" y="546" width="8" height="14" fill="#20ff20" fill-opacity="0.3">
    <animate attributeName="opacity" values="0.3;0.05;0.3" dur="1.5s" repeatCount="indefinite"/>
  </rect>
</svg>
